<svg xmlns="http://www.w3.org/2000/svg" version="1.1" xmlns:xlink="http://www.w3.org/1999/xlink" xmlns:svgjs="http://svgjs.com/svgjs" width="1440" height="560" preserveAspectRatio="none" viewBox="0 0 1440 560"><g mask="url(&quot;#SvgjsMask1000&quot;)" fill="none"><rect width="1440" height="560" x="0" y="0" fill="rgba(0, 183, 255, 1)"></rect><path d="M0,643.351C116.483,622.417,191.836,516.969,295.252,459.421C408.12,396.614,562.946,397.196,634.999,289.994C708.56,180.548,698.218,32.376,668.656,-96.138C640.443,-218.786,559.697,-318.568,473.842,-410.586C390.621,-499.781,294.932,-573.272,181.53,-618.234C59.777,-666.507,-72.033,-709.945,-198.875,-677.307C-327.293,-644.264,-450.014,-559.645,-508.557,-440.667C-564.043,-327.903,-473.231,-194.866,-496.986,-71.456C-522.663,61.94,-676.118,163.684,-650.57,297.105C-625.21,429.546,-491.395,516.046,-372.357,579.4C-258.887,639.791,-126.513,666.087,0,643.351" fill="#0092cc"></path><path d="M1440 1095.1390000000001C1539.022 1084.626 1586.455 969.206 1659.459 901.485 1718.026 847.156 1781.375 802.413 1826.571 736.5409999999999 1879.5 659.398 1939.808 581.105 1943.417 487.62 1947.307 386.85 1922.19 274.535 1847.001 207.332 1772.936 141.13400000000001 1659.58 161.92399999999998 1561.486 146.25599999999997 1477.038 132.76799999999997 1396.177 111.11700000000002 1311.325 121.77199999999999 1214.271 133.959 1114.7440000000001 150.88600000000002 1038.328 211.949 954.213 279.164 881.409 370.90700000000004 866.162 477.494 850.918 584.058 896.465 691.56 956.9870000000001 780.585 1012.0160000000001 861.529 1106.383 898.081 1188.402 951.494 1270.999 1005.284 1341.983 1105.545 1440 1095.1390000000001" fill="#33c5ff"></path></g><defs><mask id="SvgjsMask1000"><rect width="1440" height="560" fill="#ffffff"></rect></mask></defs></svg>